<svg xmlns="http://www.w3.org/2000/svg" width="29.036" height="20.416" viewBox="0 0 29.036 20.416">
  <g id="Group_15" data-name="Group 15" transform="translate(-0.001 5.758)">
    <path id="Subtraction_11" data-name="Subtraction 11" d="M-51.227-838.472H-72.463a1,1,0,0,1-1-1v-4.658a1,1,0,0,1,1-1h21.236a1,1,0,0,1,1,1v4.658A1,1,0,0,1-51.227-838.472Zm-20.236-2.663v1.332h17.989v-1.332Zm18.11-3.208h0l-.341.365.914.853-.852.914.365.34.852-.914.914.853.341-.366-.914-.852.852-.914-.365-.341-.853.914-.914-.852Zm-18.11.545v1.332h8.245V-843.8Z" transform="translate(73.463 845.13)" fill="rgba(204,208,95,0.5)"/>
    <path id="Subtraction_10" data-name="Subtraction 10" d="M-51.227-838.6H-72.463a1,1,0,0,1-1-1v-4.658a1,1,0,0,1,1-1h21.236a1,1,0,0,1,1,1v4.658A1,1,0,0,1-51.227-838.6Zm-20.236-2.453v1.331h17.989v-1.331Zm18.11-3.419h0l-.34.365.914.852-.852.914.365.341.853-.914.914.852.341-.365-.914-.852.853-.914-.366-.341-.852.914-.914-.852Zm-18.11.54v1.332h8.245v-1.332Z" transform="translate(73.463 853.259)" fill="#ccd05f"/>
    <line id="Line_9" data-name="Line 9" y2="4" transform="translate(12.037 -5.758)" fill="none" stroke="#ccd05f" stroke-width="1"/>
    <line id="Line_10" data-name="Line 10" x2="6" transform="translate(9.037 -1.758)" fill="none" stroke="#ccd05f" stroke-width="1"/>
    <line id="Line_11" data-name="Line 11" y2="6" transform="translate(25.037 4.242)" fill="none" stroke="#ccd05f" stroke-width="1"/>
    <line id="Line_12" data-name="Line 12" x2="4" transform="translate(25.037 7.242)" fill="none" stroke="#ccd05f" stroke-width="1"/>
  </g>
</svg>
