<svg xmlns="http://www.w3.org/2000/svg" width="37" height="27" viewBox="0 0 37 27">
  <g id="Group_15" data-name="Group 15" transform="translate(6.963 4.778)">
    <path id="Subtraction_4" data-name="Subtraction 4" d="M21.236,17H2a2,2,0,0,1-2-2V2A2,2,0,0,1,2,0H21.236a2,2,0,0,1,2,2V15A2,2,0,0,1,21.236,17ZM2.249,8v2h8.245V8Zm0-4V6H20.238V4Z" fill="rgba(204,208,95,0.2)"/>
    <rect id="Rectangle_25" data-name="Rectangle 25" width="7.236" height="3" rx="1" transform="translate(3 13)" fill="rgba(204,208,95,0.5)"/>
    <rect id="Rectangle_26" data-name="Rectangle 26" width="7.236" height="3" rx="1" transform="translate(14 13)" fill="#ccd05f"/>
    <line id="Line_5" data-name="Line 5" x2="5" transform="translate(25.037 8.222)" fill="none" stroke="#ccd05f" stroke-width="1"/>
    <line id="Line_6" data-name="Line 6" x2="5" transform="translate(-6.963 8.222)" fill="none" stroke="#ccd05f" stroke-width="1"/>
    <line id="Line_7" data-name="Line 7" y2="4" transform="translate(12.037 18.222)" fill="none" stroke="#ccd05f" stroke-width="1"/>
    <line id="Line_8" data-name="Line 8" y2="4" transform="translate(12.037 -4.778)" fill="none" stroke="#ccd05f" stroke-width="1"/>
  </g>
</svg>
