<svg xmlns="http://www.w3.org/2000/svg" width="20.299" height="14.27" viewBox="0 0 20.299 14.27">
  <g id="Group_20" data-name="Group 20" transform="translate(0.463 5.941)">
    <path id="Subtraction_12" data-name="Subtraction 12" d="M-56.956-763.859H-73.672a1.793,1.793,0,0,1-1.791-1.791,1.793,1.793,0,0,1,1.791-1.791h16.717a1.793,1.793,0,0,1,1.791,1.791A1.793,1.793,0,0,1-56.956-763.859Zm-16.508-1.769v1h15v-1Z" transform="translate(75 772.188)" fill="#ccd05f"/>
    <path id="Subtraction_13" data-name="Subtraction 13" d="M-57.09-763.859H-73.672a1.793,1.793,0,0,1-1.791-1.791,1.793,1.793,0,0,1,1.791-1.791H-57.09A1.793,1.793,0,0,1-55.3-765.65,1.793,1.793,0,0,1-57.09-763.859Zm-16.374-2.023v1h15v-1Z" transform="translate(75 767.441)" fill="rgba(204,208,95,0.2)"/>
    <line id="Line_13" data-name="Line 13" y2="4" transform="translate(10.037 -5.941)" fill="none" stroke="#ccd05f" stroke-width="1"/>
    <line id="Line_14" data-name="Line 14" x2="6" transform="translate(7.037 -1.941)" fill="none" stroke="#ccd05f" stroke-width="1"/>
  </g>
</svg>
