<svg xmlns="http://www.w3.org/2000/svg" width="22.031" height="24.16" viewBox="0 0 22.031 24.16">
  <g id="Group_39" data-name="Group 39" transform="translate(0)">
    <path id="Path_14" data-name="Path 14" d="M911.436,504H890.6c-.329,0-.6.45-.6,1.007V516.08c0,.556.267,1.007.6,1.007h20.84c.329,0,.6-.45.6-1.007V505.007C912.031,504.45,911.765,504,911.436,504Zm-18.161,1.592h15.482v1.51H893.275Zm-2.133.066.6.751.6-.751.177.4-.776.974-.776-.974Zm20.294,10.423H890.6v-8.053h20.84Z" transform="translate(-890 -498.378)" fill="#57b684"/>
    <path id="Path_15" data-name="Path 15" d="M911.436,492.831H890.6c-.329,0-.6.451-.6,1.007v2.013c0,.556.267,1.007.6,1.007h20.84c.329,0,.6-.45.6-1.007v-2.013C912.031,493.282,911.765,492.831,911.436,492.831Zm-19.864,3.326-.239-.3.444-1.013-.444-1.012.239-.3.576,1.312Zm17.185-.557H893.275v-1.51h15.482Z" transform="translate(-890 -492.831)" fill="#57b684" opacity="0.25"/>
    <path id="Path_16" data-name="Path 16" d="M911.436,532.831H890.6c-.329,0-.6.451-.6,1.007v2.013c0,.556.267,1.007.6,1.007h20.84c.329,0,.6-.451.6-1.007v-2.013C912.031,533.282,911.765,532.831,911.436,532.831Zm-19.864,3.326-.239-.3.444-1.013-.444-1.012.239-.3.576,1.312Zm17.185-.557H893.275v-1.51h15.482Z" transform="translate(-890 -512.698)" fill="#57b684" opacity="0.25"/>
  </g>
</svg>
