<svg xmlns="http://www.w3.org/2000/svg" width="22.028" height="18.496" viewBox="0 0 22.028 18.496">
  <g id="Group_23" data-name="Group 23" transform="translate(0 0)">
    <rect id="Rectangle_34" data-name="Rectangle 34" width="22.028" height="2" rx="1" fill="rgba(204,208,95,0.2)"/>
    <rect id="Rectangle_35" data-name="Rectangle 35" width="16" height="2" rx="1" fill="#ccd05f"/>
    <path id="Subtraction_6" data-name="Subtraction 6" d="M5.861,11.721a5.861,5.861,0,0,1-4.144-10A5.861,5.861,0,0,1,10,10,5.822,5.822,0,0,1,5.861,11.721Zm0-10.656a4.8,4.8,0,1,0,4.8,4.8A4.8,4.8,0,0,0,5.861,1.065Z" transform="translate(4 6.775)" fill="rgba(204,208,95,0.2)"/>
    <path id="Subtraction_8" data-name="Subtraction 8" d="M3.685,11.721A5.784,5.784,0,0,1,0,10.419l.667-.834A4.794,4.794,0,1,0,3.685,1.065V0A5.86,5.86,0,0,1,7.829,10,5.82,5.82,0,0,1,3.685,11.721Z" transform="translate(6.176 6.775)" fill="#ccd05f"/>
  </g>
</svg>
