<svg xmlns="http://www.w3.org/2000/svg" width="18.611" height="10.716" viewBox="0 0 18.611 10.716">
  <g id="Group_25" data-name="Group 25" transform="translate(-8.304 -11.074)">
    <path id="Subtraction_9" data-name="Subtraction 9" d="M15.51,10.716v0L14.4,8.573H1a1,1,0,0,1-1-1V1A1,1,0,0,1,1,0H17.611a1,1,0,0,1,1,1V7.573a1,1,0,0,1-1,1h-.994l-1.107,2.141ZM.887,1.071V3.215h14.18V1.071Z" transform="translate(8.304 11.074)" fill="rgba(204,208,95,0.2)"/>
    <rect id="Rectangle_38" data-name="Rectangle 38" width="4" height="2" rx="0.5" transform="translate(16.608 16.522)" fill="rgba(204,208,95,0.5)"/>
    <rect id="Rectangle_39" data-name="Rectangle 39" width="4" height="2" rx="0.5" transform="translate(21.916 16.522)" fill="#ccd05f"/>
  </g>
</svg>
